<svg id="Capa_1" data-name="Capa 1" xmlns="http://www.w3.org/2000/svg" xmlns:xlink="http://www.w3.org/1999/xlink" viewBox="0 0 16 15.27"><defs><style>.cls-1{fill:url(#Degradado_sin_nombre_22);}.cls-2{fill:url(#Degradado_sin_nombre_22-2);}.cls-3{fill:url(#Degradado_sin_nombre_14);}</style><linearGradient id="Degradado_sin_nombre_22" x1="2.17" y1="4.55" x2="11.54" y2="1.45" gradientUnits="userSpaceOnUse"><stop offset="0" stop-color="#fff"/><stop offset="0.04" stop-color="#d7ebdc"/><stop offset="0.09" stop-color="#b2d8ba"/><stop offset="0.14" stop-color="#91c79d"/><stop offset="0.19" stop-color="#77ba86"/><stop offset="0.25" stop-color="#62b074"/><stop offset="0.31" stop-color="#54a967"/><stop offset="0.39" stop-color="#4ca45f"/><stop offset="0.53" stop-color="#49a35d"/></linearGradient><linearGradient id="Degradado_sin_nombre_22-2" x1="5.66" y1="15.09" x2="15.02" y2="11.99" xlink:href="#Degradado_sin_nombre_22"/><linearGradient id="Degradado_sin_nombre_14" x1="0.61" y1="10.65" x2="15.14" y2="6.71" gradientUnits="userSpaceOnUse"><stop offset="0" stop-color="#f0f7f2"/><stop offset="0.58" stop-color="#8cc599"/><stop offset="1" stop-color="#49a35d"/></linearGradient></defs><path class="cls-1" d="M5.28,5.21A1.57,1.57,0,0,1,6,4.91a24,24,0,0,1,4.35-.33L8.22.29a.51.51,0,0,0-.92,0l-2,4.12c-.15.32-.3.64-.43,1Z"/><path class="cls-2" d="M12.88,14.67l-.79-4.14a13,13,0,0,1-3.47,1.86c-.3.21-.62.39-.92.6h0a.49.49,0,0,1,.31.05l4.15,2.16A.5.5,0,0,0,12.88,14.67Z"/><path class="cls-3" d="M.46,5.38,5.1,4.9a22.46,22.46,0,0,1,6,.19l4.52.76a.51.51,0,0,1,.25.88l-3.37,3A22.38,22.38,0,0,1,7.74,13L3.33,15.22a.51.51,0,0,1-.73-.55l.92-4.59a.5.5,0,0,0-.14-.45L.14,6.24A.51.51,0,0,1,.46,5.38Z"/></svg>