<svg id="Capa_1" data-name="Capa 1" xmlns="http://www.w3.org/2000/svg" xmlns:xlink="http://www.w3.org/1999/xlink" viewBox="0 0 363.59 344.07"><defs><style>.cls-1{fill:url(#Degradado_sin_nombre_55);}.cls-2{fill:url(#Degradado_sin_nombre_55-2);}.cls-3{fill:url(#Degradado_sin_nombre_49);}</style><linearGradient id="Degradado_sin_nombre_55" x1="48.85" y1="102.57" x2="259.84" y2="32.74" gradientUnits="userSpaceOnUse"><stop offset="0" stop-color="#353935"/><stop offset="0.19" stop-color="#3a523f"/><stop offset="0.55" stop-color="#427e4f"/><stop offset="0.83" stop-color="#479959"/><stop offset="1" stop-color="#49a35d"/></linearGradient><linearGradient id="Degradado_sin_nombre_55-2" x1="127.4" y1="339.91" x2="338.39" y2="270.08" xlink:href="#Degradado_sin_nombre_55"/><linearGradient id="Degradado_sin_nombre_49" x1="112.66" y1="213.04" x2="566.27" y2="90.05" gradientUnits="userSpaceOnUse"><stop offset="0" stop-color="#353935"/><stop offset="0.16" stop-color="#364038"/><stop offset="0.39" stop-color="#3a533f"/><stop offset="0.66" stop-color="#40724a"/><stop offset="0.96" stop-color="#489d5b"/><stop offset="1" stop-color="#49a35d"/></linearGradient></defs><path class="cls-1" d="M118.85,117.36a34.38,34.38,0,0,1,16.39-6.74c34-5.1,74.57-8.93,97.93-7.56l-48-96.55a11.44,11.44,0,0,0-20.63,0l-44.74,93c-3.42,7.11-6.61,14.32-9.69,21.57C113,119.72,115.92,118.49,118.85,117.36Z"/><path class="cls-2" d="M290.19,330.34l-17.84-93.21c-23.8,18.43-50,31.3-78.23,41.86-6.8,4.72-14,8.94-20.77,13.65l-.13.12a11.39,11.39,0,0,1,6.95,1.16l93.5,48.72A11.44,11.44,0,0,0,290.19,330.34Z"/><path class="cls-3" d="M10.29,121.16l104.54-10.72A503.28,503.28,0,0,1,249.1,114.7l101.74,17a11.44,11.44,0,0,1,5.73,19.82l-76,67.8A503,503,0,0,1,174.46,292L74.94,342.79a11.44,11.44,0,0,1-16.42-12.43L79.2,227a11.45,11.45,0,0,0-3-10.15L3.19,140.45A11.44,11.44,0,0,1,10.29,121.16Z"/></svg>