<svg id="Capa_1" data-name="Capa 1" xmlns="http://www.w3.org/2000/svg" xmlns:xlink="http://www.w3.org/1999/xlink" viewBox="0 0 756.91 160.9"><defs><style>.cls-1{fill:url(#Degradado_sin_nombre_55);}.cls-2{fill:url(#Degradado_sin_nombre_55-2);}.cls-3{fill:#49a35d;}.cls-4{fill:url(#Degradado_sin_nombre_37);}.cls-5{fill:url(#Degradado_sin_nombre_49);}</style><linearGradient id="Degradado_sin_nombre_55" x1="21.38" y1="44.88" x2="113.7" y2="14.33" gradientUnits="userSpaceOnUse"><stop offset="0" stop-color="#353935"/><stop offset="0.19" stop-color="#3a523f"/><stop offset="0.55" stop-color="#427e4f"/><stop offset="0.83" stop-color="#479959"/><stop offset="1" stop-color="#49a35d"/></linearGradient><linearGradient id="Degradado_sin_nombre_55-2" x1="55.75" y1="148.74" x2="148.07" y2="118.18" xlink:href="#Degradado_sin_nombre_55"/><linearGradient id="Degradado_sin_nombre_37" x1="181.41" y1="117.26" x2="564.16" y2="117.26" gradientUnits="userSpaceOnUse"><stop offset="0" stop-color="#353935"/><stop offset="0.2" stop-color="#374339" stop-opacity="0.98"/><stop offset="0.5" stop-color="#3c5e43" stop-opacity="0.93"/><stop offset="0.84" stop-color="#448b54" stop-opacity="0.85"/><stop offset="1" stop-color="#49a35d" stop-opacity="0.8"/></linearGradient><linearGradient id="Degradado_sin_nombre_49" x1="49.3" y1="93.22" x2="247.79" y2="39.4" gradientUnits="userSpaceOnUse"><stop offset="0" stop-color="#353935"/><stop offset="0.16" stop-color="#364038"/><stop offset="0.39" stop-color="#3a533f"/><stop offset="0.66" stop-color="#40724a"/><stop offset="0.96" stop-color="#489d5b"/><stop offset="1" stop-color="#49a35d"/></linearGradient></defs><path class="cls-1" d="M52,51.35a15,15,0,0,1,7.17-2.94C74.07,46.17,91.81,44.5,102,45.1L81,2.85a5,5,0,0,0-9,0L52.42,43.51c-1.5,3.11-2.89,6.27-4.24,9.44C49.45,52.39,50.73,51.85,52,51.35Z"/><path class="cls-2" d="M127,144.55l-7.8-40.79c-10.42,8.07-21.87,13.7-34.24,18.32-3,2.07-6.12,3.91-9.09,6l0,.06a5,5,0,0,1,3,.5l40.91,21.32A5,5,0,0,0,127,144.55Z"/><path d="M181.73,38.49a28.19,28.19,0,0,1,11-11.12,31.91,31.91,0,0,1,16-4q10.94,0,18.73,5.78a27.75,27.75,0,0,1,10.42,15.75H221.38a13.26,13.26,0,0,0-5.21-5.86,14.64,14.64,0,0,0-7.65-2,14.29,14.29,0,0,0-11.21,4.81Q193,46.68,193,54.73t4.29,12.86a14.3,14.3,0,0,0,11.21,4.82,14.55,14.55,0,0,0,7.65-2,13.21,13.21,0,0,0,5.21-5.86h16.46a27.56,27.56,0,0,1-10.42,15.71Q219.64,86,208.69,86a31.82,31.82,0,0,1-16-4,28.19,28.19,0,0,1-11-11.07,32.73,32.73,0,0,1-3.94-16.19A33,33,0,0,1,181.73,38.49Z"/><path d="M254.6,83.17a22.4,22.4,0,0,1-9-8.75,26.23,26.23,0,0,1-3.28-13.3,25.91,25.91,0,0,1,3.33-13.26,22.47,22.47,0,0,1,9.1-8.8,29,29,0,0,1,25.91,0,22.47,22.47,0,0,1,9.1,8.8,25.91,25.91,0,0,1,3.33,13.26,25.63,25.63,0,0,1-3.37,13.26,22.79,22.79,0,0,1-9.19,8.79,27.41,27.41,0,0,1-13,3.07A26.88,26.88,0,0,1,254.6,83.17Zm20.22-13q3-3.15,3-9t-2.93-9a9.95,9.95,0,0,0-14.49,0q-2.9,3.11-2.89,9.06t2.85,9a9.19,9.19,0,0,0,7.13,3.15A9.75,9.75,0,0,0,274.82,70.13Z"/><path d="M342.74,41.73q5.13,5.57,5.12,15.27V85.54H333V59q0-4.91-2.53-7.62a10,10,0,0,0-13.66,0q-2.54,2.72-2.54,7.62V85.54h-15V36.7h15v6.47a15.93,15.93,0,0,1,6.13-5.12A19.52,19.52,0,0,1,329,36.17Q337.62,36.17,342.74,41.73Z"/><path d="M365,84.05a19.45,19.45,0,0,1-7.88-6,15.76,15.76,0,0,1-3.24-8.53h14.79a5.71,5.71,0,0,0,2.37,4.11,8.36,8.36,0,0,0,5.16,1.58,7.33,7.33,0,0,0,4.34-1.1,3.33,3.33,0,0,0,1.53-2.84,3.29,3.29,0,0,0-2.19-3.11,44.65,44.65,0,0,0-7.09-2.23,67.57,67.57,0,0,1-8.75-2.58,15.07,15.07,0,0,1-6-4.29,11.65,11.65,0,0,1-2.54-7.92,13.44,13.44,0,0,1,2.32-7.66A15.58,15.58,0,0,1,364.63,38a26.13,26.13,0,0,1,10.72-2q9.18,0,14.49,4.55a17.76,17.76,0,0,1,6.08,12.08H382.09a6,6,0,0,0-2.24-4,7.73,7.73,0,0,0-4.94-1.49,6.87,6.87,0,0,0-4,1,3.22,3.22,0,0,0-1.4,2.76A3.37,3.37,0,0,0,371.72,54a35.48,35.48,0,0,0,6.95,2.1,76,76,0,0,1,8.84,2.75,15.32,15.32,0,0,1,6,4.38,12.39,12.39,0,0,1,2.67,8.1A12.83,12.83,0,0,1,393.77,79a15.92,15.92,0,0,1-6.91,5.29,26.34,26.34,0,0,1-10.46,1.93A28.07,28.07,0,0,1,365,84.05Z"/><path d="M432.59,72.85V85.54H425q-8.14,0-12.69-4t-4.56-13V49.12h-6V36.7h6V24.79h15V36.7h9.8V49.12h-9.8V68.73a4.1,4.1,0,0,0,1.05,3.15,5.09,5.09,0,0,0,3.5,1Z"/><path d="M484.94,64.71H451.06a10.15,10.15,0,0,0,2.93,7,8.94,8.94,0,0,0,6.35,2.41q5.6,0,7.79-4.73h15.93A21.86,21.86,0,0,1,479.64,78a22.12,22.12,0,0,1-8,6,25.72,25.72,0,0,1-10.77,2.19,26.15,26.15,0,0,1-12.78-3.07,21.74,21.74,0,0,1-8.75-8.75,27,27,0,0,1-3.15-13.3,27.38,27.38,0,0,1,3.11-13.31A21.46,21.46,0,0,1,448,39.06,28.4,28.4,0,0,1,473.47,39a21.41,21.41,0,0,1,8.62,8.49,25.81,25.81,0,0,1,3.11,12.87A39.48,39.48,0,0,1,484.94,64.71Zm-15.06-8.32a7.71,7.71,0,0,0-2.63-6.13A9.68,9.68,0,0,0,460.69,48a9.48,9.48,0,0,0-6.35,2.19,9.73,9.73,0,0,0-3.19,6.21Z"/><path d="M506.29,20.77V85.54h-15V20.77Z"/><path d="M530.36,20.77V85.54h-15V20.77Z"/><path d="M539.34,47.81a21.14,21.14,0,0,1,7.74-8.75A20.26,20.26,0,0,1,558,36a18.77,18.77,0,0,1,9.06,2.1,15.42,15.42,0,0,1,6,5.51V36.7h15V85.54h-15V78.62A16.19,16.19,0,0,1,567,84.14a18.82,18.82,0,0,1-9.06,2.1,19.9,19.9,0,0,1-10.86-3.11,21.4,21.4,0,0,1-7.74-8.84A29.41,29.41,0,0,1,536.49,61,29.17,29.17,0,0,1,539.34,47.81ZM570,52.28a10.52,10.52,0,0,0-15.14-.05c-2.07,2.13-3.11,5.07-3.11,8.8s1,6.7,3.11,8.88A10.41,10.41,0,0,0,570,70q3.1-3.24,3.11-8.84C573.08,57.38,572,54.44,570,52.28Z"/><path d="M624.37,72.85V85.54h-7.61q-8.14,0-12.7-4t-4.55-13V49.12h-6V36.7h6V24.79h15V36.7h9.8V49.12h-9.8V68.73a4.1,4.1,0,0,0,1,3.15,5.09,5.09,0,0,0,3.5,1Z"/><path d="M632,29.3a7.53,7.53,0,0,1-2.49-5.73A7.64,7.64,0,0,1,632,17.74a9.09,9.09,0,0,1,6.43-2.31,9,9,0,0,1,6.35,2.31,7.64,7.64,0,0,1,2.49,5.83,7.53,7.53,0,0,1-2.49,5.73,8.94,8.94,0,0,1-6.35,2.32A9.05,9.05,0,0,1,632,29.3Zm13.87,7.4V85.54h-15V36.7Z"/><path d="M664.33,83.17a22.34,22.34,0,0,1-9-8.75A26.13,26.13,0,0,1,652,61.12a25.91,25.91,0,0,1,3.33-13.26,22.47,22.47,0,0,1,9.1-8.8,29,29,0,0,1,25.91,0,22.53,22.53,0,0,1,9.1,8.8,25.91,25.91,0,0,1,3.33,13.26,25.73,25.73,0,0,1-3.37,13.26,22.79,22.79,0,0,1-9.19,8.79,27.44,27.44,0,0,1-13,3.07A26.85,26.85,0,0,1,664.33,83.17Zm20.22-13q3-3.15,3-9t-2.94-9a9.94,9.94,0,0,0-14.48,0q-2.89,3.11-2.89,9.06t2.84,9a9.23,9.23,0,0,0,7.14,3.15A9.76,9.76,0,0,0,684.55,70.13Z"/><path d="M752.47,41.73Q757.6,47.3,757.59,57V85.54H742.71V59c0-3.27-.84-5.81-2.54-7.62a9.95,9.95,0,0,0-13.65,0Q724,54.12,724,59V85.54H709V36.7h15v6.47a15.93,15.93,0,0,1,6.13-5.12,19.49,19.49,0,0,1,8.66-1.88Q747.35,36.17,752.47,41.73Z"/><path class="cls-3" d="M615.15,109.42v10h-21v10.85h15.69v9.75H594.18V160.9H581.64V109.42Z"/><path class="cls-3" d="M660.69,120V160.9H648.15v-5.57a13.7,13.7,0,0,1-5.17,4.36,15.75,15.75,0,0,1-7.22,1.65,16.23,16.23,0,0,1-8.29-2.09,14.1,14.1,0,0,1-5.57-6.05,20.57,20.57,0,0,1-2-9.31V120h12.47V142.2a9,9,0,0,0,2.12,6.38,7.45,7.45,0,0,0,5.72,2.27,7.54,7.54,0,0,0,5.8-2.27,9,9,0,0,0,2.12-6.38V120Z"/><path class="cls-3" d="M704.66,124.2Q709,128.85,709,137V160.9H696.48V138.68a9,9,0,0,0-2.12-6.38,8.34,8.34,0,0,0-11.44,0,9,9,0,0,0-2.13,6.38V160.9H668.25V120h12.54v5.43a13.2,13.2,0,0,1,5.13-4.29,16.33,16.33,0,0,1,7.26-1.58Q700.37,119.54,704.66,124.2Z"/><path class="cls-3" d="M716.1,129.29a17.8,17.8,0,0,1,6.49-7.33,17,17,0,0,1,9.17-2.57,16.17,16.17,0,0,1,7.37,1.69,13.39,13.39,0,0,1,5.24,4.55v-19h12.54V160.9H744.37V155a12.81,12.81,0,0,1-5,4.7,15.81,15.81,0,0,1-7.59,1.76,16.73,16.73,0,0,1-9.17-2.61,17.94,17.94,0,0,1-6.49-7.4,27.05,27.05,0,0,1,0-22.19ZM741.77,133a8.82,8.82,0,0,0-12.69,0,10.13,10.13,0,0,0-2.6,7.37,10.39,10.39,0,0,0,2.6,7.44,8.74,8.74,0,0,0,12.69,0,11.86,11.86,0,0,0,0-14.82Z"/><rect class="cls-4" x="181.41" y="112.37" width="382.75" height="9.79"/><path class="cls-5" d="M4.5,53l45.75-4.69A220.24,220.24,0,0,1,109,50.19l44.52,7.45A5,5,0,0,1,156,66.31L122.78,96a220,220,0,0,1-46.44,31.8L32.79,150a5,5,0,0,1-7.18-5.44l9-45.24a5,5,0,0,0-1.3-4.44L1.4,61.46A5,5,0,0,1,4.5,53Z"/></svg>