<svg width="512" height="512" viewBox="0 0 512 512" fill="none" xmlns="http://www.w3.org/2000/svg">
<rect width="512" height="512" fill="black"/>
<path fill-rule="evenodd" clip-rule="evenodd" d="M356.76 458.786L255.88 405.746L155 458.786L163.943 406.334L255.88 358L347.818 406.334L356.76 458.786Z" fill="#00B345"/>
<path fill-rule="evenodd" clip-rule="evenodd" d="M468.411 231.755L386.794 311.308L406.063 423.64L358.943 398.927L341.384 296.553L415.763 224.052L468.411 231.755Z" fill="white"/>
<path fill-rule="evenodd" clip-rule="evenodd" d="M286.459 55.5441L336.897 157.75L449.686 174.136L411.621 211.313L308.832 196.377L262.863 103.234L286.459 55.5441Z" fill="white"/>
<path fill-rule="evenodd" clip-rule="evenodd" d="M175.444 157.75L62.6548 174.136L100.719 211.313L203.509 196.377L249.478 103.234L225.882 55.5441L175.444 157.75Z" fill="white"/>
<path fill-rule="evenodd" clip-rule="evenodd" d="M43.8833 231.8L125.5 311.353L106.231 423.686L153.351 398.973L170.91 296.599L96.5306 224.097L43.8833 231.8Z" fill="white"/>
</svg>
