<svg width="2595" height="428" viewBox="0 0 2595 428" fill="none" xmlns="http://www.w3.org/2000/svg">
<rect width="2595" height="428" fill="black"/>
<g clip-path="url(#clip0_5_114)">
<path fill-rule="evenodd" clip-rule="evenodd" d="M325.76 417.241L224.88 364.202L124 417.241L132.943 364.79L224.88 316.456L316.818 364.79L325.76 417.241Z" fill="#00B345"/>
<path fill-rule="evenodd" clip-rule="evenodd" d="M437.411 190.211L355.794 269.764L375.063 382.096L327.943 357.383L310.384 255.009L384.763 182.508L437.411 190.211Z" fill="white"/>
<path fill-rule="evenodd" clip-rule="evenodd" d="M255.459 14L305.897 116.206L418.686 132.592L380.621 169.769L277.832 154.833L231.863 61.6901L255.459 14Z" fill="white"/>
<path fill-rule="evenodd" clip-rule="evenodd" d="M144.444 116.206L31.6548 132.592L69.7194 169.769L172.509 154.833L218.478 61.6901L194.882 14L144.444 116.206Z" fill="white"/>
<path fill-rule="evenodd" clip-rule="evenodd" d="M12.8833 190.256L94.5003 269.809L75.2307 382.142L122.351 357.429L139.91 255.055L65.5306 182.553L12.8833 190.256Z" fill="white"/>
</g>
<path d="M683.408 227.48L650 223.256C646.736 246.296 631.952 259.544 610.64 259.544C586.832 259.544 573.392 244.184 573.392 217.496C573.392 190.04 587.792 174.488 611.024 174.488C630.416 174.488 643.28 185.816 648.656 207.128L681.104 198.872C674.192 167.384 650.192 144.536 610.832 144.536C565.712 144.536 537.104 173.528 537.104 218.84C537.104 259.352 563.216 289.304 608.912 289.304C653.648 289.304 677.84 263.384 683.408 227.48ZM757.673 289.304C794.345 289.304 817.577 268.76 817.577 235.736C817.577 202.712 794.345 181.976 757.673 181.976C721.193 181.976 697.961 202.712 697.961 235.736C697.961 268.76 721.193 289.304 757.673 289.304ZM733.865 235.736C733.865 218.648 742.313 206.552 757.673 206.552C773.225 206.552 781.673 218.648 781.673 235.736C781.673 252.824 773.225 264.728 757.673 264.728C742.313 264.728 733.865 252.824 733.865 235.736ZM836.096 184.28V287H871.232V232.28C871.232 216.152 880.064 209.24 891.968 209.24C903.872 209.24 909.44 215.96 909.44 227.672V287H944.576V222.104C944.576 195.608 931.328 181.976 908.096 181.976C888.128 181.976 876.416 192.536 871.232 208.856H870.08V184.28H836.096ZM981.17 249.752L957.938 259.736C967.346 279.896 986.546 289.304 1013.62 289.304C1044.91 289.304 1066.03 275.864 1066.03 252.824C1066.03 229.4 1044.15 224.216 1027.63 222.488C1020.72 221.72 1013.43 221.528 1007.67 220.952C999.026 219.992 996.53 217.688 996.53 213.656C996.53 208.28 1003.44 204.632 1013.62 204.632C1024.56 204.632 1034.93 208.856 1042.61 217.688L1061.62 201.368C1049.71 187.544 1031.67 181.976 1012.66 181.976C985.01 181.976 964.466 195.032 964.466 216.728C964.466 239.768 986.354 245.144 999.218 246.296C1007.47 247.256 1013.81 247.448 1020.72 248.024C1029.94 248.984 1034.16 251.096 1034.16 255.896C1034.16 262.232 1026.87 266.648 1014.19 266.648C999.218 266.648 987.122 261.272 981.17 249.752ZM1072.28 184.28V208.856H1087.83V261.656C1087.83 277.592 1095.13 289.112 1123.55 289.112C1135.83 289.112 1143.51 287.96 1152.15 285.848V260.888C1147.16 261.848 1142.36 262.424 1137.95 262.424C1125.85 262.424 1122.97 257.432 1122.97 245.336V208.856H1151.58V184.28H1122.97V154.52H1107.42L1092.44 184.28H1072.28ZM1276.62 253.592L1248.01 245.144C1244.56 259.16 1234 264.152 1222.09 264.152C1206.16 264.152 1199.44 254.936 1198.28 239.96H1277C1277 202.52 1254.73 181.976 1220.75 181.976C1185.8 181.976 1163.15 204.248 1163.15 237.08C1163.15 268.76 1184.08 289.304 1219.79 289.304C1245.9 289.304 1267.6 279.512 1276.62 253.592ZM1199.05 224.6C1201.93 211.544 1209.8 205.976 1221.32 205.976C1232.27 205.976 1239.76 211.736 1242.44 224.6H1199.05ZM1295.47 287H1330.61V146.84H1295.47V287ZM1354.72 287H1389.86V146.84H1354.72V287ZM1439.89 289.496C1459.48 289.496 1473.11 279.128 1480.02 263H1480.79V264.536C1480.79 278.936 1491.16 288.92 1508.82 288.92C1517.27 288.92 1526.48 287 1531.67 284.888V259.736C1528.98 261.08 1525.33 261.848 1522.64 261.848C1516.5 261.848 1514.39 258.2 1514.39 250.712V219.224C1514.39 197.912 1496.92 182.168 1464.47 182.168C1438.74 182.168 1418.96 191.576 1409.56 216.344L1436.82 226.52C1442.2 211.352 1451.99 205.208 1462.74 205.208C1473.11 205.208 1479.44 209.432 1479.44 219.608V221.144L1435.28 233.816C1417.24 239.192 1407.44 248.024 1407.44 262.616C1407.44 275.48 1417.81 289.496 1439.89 289.496ZM1441.81 255.512C1441.81 250.328 1445.84 248.216 1452.56 245.528L1479.44 235.352V246.296C1474.84 257.816 1461.97 264.344 1452.95 264.344C1445.46 264.344 1441.81 260.12 1441.81 255.512ZM1533.91 184.28V208.856H1549.46V261.656C1549.46 277.592 1556.75 289.112 1585.17 289.112C1597.46 289.112 1605.14 287.96 1613.78 285.848V260.888C1608.79 261.848 1603.99 262.424 1599.57 262.424C1587.47 262.424 1584.59 257.432 1584.59 245.336V208.856H1613.2V184.28H1584.59V154.52H1569.04L1554.07 184.28H1533.91ZM1631.1 287H1666.23V184.28H1631.1V287ZM1630.71 173.336H1666.42V146.84H1630.71V173.336ZM1744.3 289.304C1780.97 289.304 1804.2 268.76 1804.2 235.736C1804.2 202.712 1780.97 181.976 1744.3 181.976C1707.82 181.976 1684.59 202.712 1684.59 235.736C1684.59 268.76 1707.82 289.304 1744.3 289.304ZM1720.49 235.736C1720.49 218.648 1728.94 206.552 1744.3 206.552C1759.85 206.552 1768.3 218.648 1768.3 235.736C1768.3 252.824 1759.85 264.728 1744.3 264.728C1728.94 264.728 1720.49 252.824 1720.49 235.736ZM1822.72 184.28V287H1857.86V232.28C1857.86 216.152 1866.69 209.24 1878.59 209.24C1890.5 209.24 1896.07 215.96 1896.07 227.672V287H1931.2V222.104C1931.2 195.608 1917.95 181.976 1894.72 181.976C1874.75 181.976 1863.04 192.536 1857.86 208.856H1856.71V184.28H1822.72ZM2011.57 287H2072.05C2118.71 287 2148.47 260.696 2148.47 216.152C2148.47 170.264 2117.94 146.84 2072.05 146.84H2011.57V287ZM2046.9 257.624V176.216H2069.37C2093.94 176.216 2112.37 186.584 2112.37 217.112C2112.37 245.72 2093.94 257.624 2069.37 257.624H2046.9ZM2269.79 287H2307.61L2250.21 146.84H2207.2L2151.33 287H2186.65L2197.98 257.24H2258.27L2269.79 287ZM2208.54 230.168L2227.55 180.248H2228.51L2247.71 230.168H2208.54ZM2386.9 289.304C2432.59 289.304 2463.31 260.12 2463.31 216.92C2463.31 173.72 2432.59 144.536 2386.9 144.536C2341.39 144.536 2310.48 173.72 2310.48 216.92C2310.48 260.12 2341.39 289.304 2386.9 289.304ZM2346.77 216.92C2346.77 191.384 2361.74 174.488 2386.9 174.488C2412.24 174.488 2427.22 191.384 2427.22 216.92C2427.22 242.456 2412.24 259.544 2386.9 259.544C2361.74 259.544 2346.77 242.456 2346.77 216.92Z" fill="white"/>
<defs>
<clipPath id="clip0_5_114">
<rect width="424" height="424" fill="white" transform="translate(13 4)"/>
</clipPath>
</defs>
</svg>
